HIERARCHY
ROOT Hips
{
    OFFSET 0.000000 0.000000 0.000000
    CHANNELS 6 Xposition Yposition Zposition Zrotation Xrotation Yrotation
    JOINT Spine
    {
        OFFSET -0.000000 7.979263 0.000000
        CHANNELS 3 Zrotation Xrotation Yrotation
        JOINT Spine1
        {
            OFFSET -0.000000 24.719021 0.000000
            CHANNELS 3 Zrotation Xrotation Yrotation
            JOINT Neck
            {
                OFFSET -0.000000 24.617504 2.237955
                CHANNELS 3 Zrotation Xrotation Yrotation
                JOINT Head
                {
                    OFFSET -0.000000 13.623132 -1.946162
                    CHANNELS 3 Zrotation Xrotation Yrotation
                    End Site
                    {
                        OFFSET -0.000000 24.327021 0.000000
                    }
                }
            }
            JOINT LeftShoulder
            {
                OFFSET 3.885773 23.018444 -0.302444
                CHANNELS 3 Zrotation Xrotation Yrotation
                JOINT LeftArm
                {
                    OFFSET 10.447750 0.000000 0.000000
                    CHANNELS 3 Zrotation Xrotation Yrotation
                    JOINT LeftForeArm
                    {
                        OFFSET 29.090096 0.000000 0.000000
                        CHANNELS 3 Zrotation Xrotation Yrotation
                        JOINT LeftHand
                        {
                            OFFSET 28.893339 0.000000 0.000000
                            CHANNELS 3 Zrotation Xrotation Yrotation
                            End Site
                            {
                                OFFSET 14.596213 0.000000 0.000000
                            }
                        }
                    }
                }
            }
            JOINT RightShoulder
            {
                OFFSET -3.864586 23.018444 -0.302444
                CHANNELS 3 Zrotation Xrotation Yrotation
                JOINT RightArm
                {
                    OFFSET -10.447750 0.000000 0.000000
                    CHANNELS 3 Zrotation Xrotation Yrotation
                    JOINT RightForeArm
                    {
                        OFFSET -29.090096 0.000000 0.000000
                        CHANNELS 3 Zrotation Xrotation Yrotation
                        JOINT RightHand
                        {
                            OFFSET -28.893339 0.000000 0.000000
                            CHANNELS 3 Zrotation Xrotation Yrotation
                            End Site
                            {
                                OFFSET -14.596213 0.000000 0.000000
                            }
                        }
                    }
                }
            }
        }
    }
    JOINT LeftUpLeg
    {
        OFFSET 9.730808 0.000000 0.000000
        CHANNELS 3 Zrotation Xrotation Yrotation
        JOINT LeftLeg
        {
            OFFSET -0.000000 -34.800129 0.000000
            CHANNELS 3 Zrotation Xrotation Yrotation
            JOINT LeftFoot
            {
                OFFSET -0.000000 -44.597416 0.000000
                CHANNELS 3 Zrotation Xrotation Yrotation
                JOINT LeftToeBase
                {
                    OFFSET -0.000000 -6.325025 14.596213
                    CHANNELS 3 Zrotation Xrotation Yrotation
                    End Site
                    {
                        OFFSET -0.000000 0.000000 3.892323
                    }
                }
            }
        }
    }
    JOINT RightUpLeg
    {
        OFFSET -9.730808 0.000000 0.000000
        CHANNELS 3 Zrotation Xrotation Yrotation
        JOINT RightLeg
        {
            OFFSET -0.000000 -34.800129 0.000000
            CHANNELS 3 Zrotation Xrotation Yrotation
            JOINT RightFoot
            {
                OFFSET -0.000000 -44.597416 0.000000
                CHANNELS 3 Zrotation Xrotation Yrotation
                JOINT RightToeBase
                {
                    OFFSET -0.000000 -6.325025 14.596213
                    CHANNELS 3 Zrotation Xrotation Yrotation
                    End Site
                    {
                        OFFSET -0.000000 0.000000 3.892323
                    }
                }
            }
        }
    }
}
MOTION
Frames:    13
Frame Time:    0.008333
-15.116540    84.226921    48.746906    -13.358299    0.517478    92.971230    -2.187386    -16.287443    1.792119    2.165308    -3.161950    2.165026    7.230014    24.019684    -3.992601    -3.996037    -3.117599    -4.287558    12.129235    6.710818    -14.104003    -91.623199    43.978546    10.355504    -2.660246    -7.308004    -10.386402    -6.595103    -7.580113    0.566468    -4.840281    3.365206    -5.868078    72.283798    54.051598    -0.685009    -4.863283    -19.329754    26.264563    -1.113215    -18.272858    1.987176    -3.918317    -37.736267    -10.665383    0.701553    -0.383352    10.735071    -14.142870    5.881964    4.051070    0.000000    0.000000    0.000000    1.451934    7.584839    -5.501757    1.740860    2.704665    -1.040031    1.865224    -6.566959    0.572990    0.000000    0.000000    0.000000    
-13.873794    84.067162    48.720886    -13.374977    0.487103    92.735352    -2.357685    -16.484167    1.747493    2.592186    -2.763745    2.151671    6.182282    23.488024    -3.850362    -3.339365    -2.739659    -4.129088    11.392987    6.478325    -13.506518    -91.466301    44.178608    10.805786    -2.889444    -7.567450    -10.171337    -6.295161    -7.866926    0.819412    -5.662712    2.992233    -5.937347    72.997002    54.014484    -0.716436    -4.641031    -19.352736    26.062325    -0.946451    -18.349474    1.823898    -3.841486    -37.963783    -10.907939    0.660351    -0.102339    11.864187    -14.144025    6.027288    3.538425    0.000000    0.000000    0.000000    1.399024    7.932990    -5.942069    1.612907    3.411014    -0.699365    2.391402    -6.357892    1.319633    0.000000    0.000000    0.000000    
-12.631425    83.899475    48.672394    -13.477956    0.496642    92.489479    -2.203300    -16.662077    1.610179    2.354519    -2.630514    1.987008    5.675269    23.359653    -3.417790    -3.130490    -2.570922    -3.682627    11.095294    6.332742    -12.740559    -91.606834    44.239948    11.391109    -2.952847    -7.785940    -9.954039    -6.480180    -8.097221    1.009452    -5.636272    3.071730    -5.429443    73.007446    53.755947    -0.517254    -4.812403    -19.254225    25.905849    -0.910306    -18.220627    2.083090    -3.918736    -38.361729    -11.219740    0.670913    0.779424    12.586596    -13.418186    6.185664    3.290517    0.000000    0.000000    0.000000    1.244174    8.160695    -6.138011    1.513591    4.180620    -0.453205    3.101907    -6.116724    1.997888    0.000000    0.000000    0.000000    
-11.359538    83.768066    48.631851    -13.494909    0.544319    92.189072    -2.348644    -16.519268    1.717399    2.414319    -2.956302    2.120801    5.595447    23.814268    -3.441028    -3.107573    -3.188749    -3.699597    10.996736    6.442988    -12.686383    -91.394333    43.746571    11.326440    -3.343987    -7.760643    -9.535156    -6.170949    -8.104699    1.269917    -5.749959    3.142206    -5.697740    73.318466    54.092625    -0.646869    -4.858826    -19.354406    25.736244    -1.047454    -18.319693    1.949834    -4.040853    -38.783386    -11.250336    0.653404    2.300064    12.141213    -12.902060    6.128514    4.168853    0.000000    0.000000    0.000000    1.101547    8.429540    -6.318705    1.330790    5.016347    0.095347    4.261774    -5.593395    2.284495    0.000000    0.000000    0.000000    
-10.078646    83.647606    48.580170    -13.508031    0.616168    91.936363    -2.232912    -16.447689    1.671145    2.031825    -3.100350    2.048992    5.280870    23.571449    -3.203906    -2.881694    -2.756546    -3.439712    10.882311    6.500336    -12.148411    -91.549805    43.829315    11.733820    -3.211325    -8.169981    -9.241866    -6.165750    -8.507846    1.520404    -5.671831    2.943700    -5.511534    73.844337    54.100082    -1.072868    -4.515128    -19.504290    25.744856    -2.277373    -18.554886    1.434245    -4.213930    -39.127197    -11.465141    0.573467    4.027081    11.067042    -12.636839    5.937538    5.655132    0.000000    0.000000    0.000000    0.905790    8.606890    -6.575465    1.176125    5.932228    -0.489753    4.784448    -5.006781    3.746632    0.000000    0.000000    0.000000    
-8.744900    83.540092    48.541321    -13.527260    0.702067    91.627464    -2.470644    -16.887676    1.774070    2.135442    -2.450614    2.186660    5.095793    23.024042    -3.224755    -2.723720    -2.476037    -3.469244    10.941220    6.119200    -11.867439    -91.801308    44.021824    11.881978    -3.283270    -8.246827    -8.899250    -5.958918    -8.575766    1.479154    -5.763187    2.938787    -5.725638    73.897812    54.414848    -0.945157    -4.407338    -19.712524    25.676456    -2.725801    -18.790909    1.224793    -4.362147    -39.521378    -11.481310    0.447778    6.140638    9.563225    -12.212912    5.490533    7.134866    0.000000    0.000000    0.000000    0.622822    8.734664    -6.467438    1.142837    6.986372    -0.595733    5.169724    -4.213439    4.532553    0.000000    0.000000    0.000000    
-7.396421    83.440712    48.483528    -13.588372    0.859905    91.267410    -2.808958    -17.039782    2.006619    2.248135    -2.423430    2.475176    5.412431    22.885908    -3.353528    -2.994878    -2.414468    -3.632753    11.145754    6.152875    -12.193656    -91.988533    43.772270    11.813383    -3.157582    -8.274185    -8.520185    -6.268881    -8.584250    1.428565    -5.886645    2.934721    -6.155799    74.323189    54.278645    -1.298039    -4.170345    -19.473171    25.569609    -2.645846    -18.609453    1.448670    -4.608119    -39.758148    -11.668046    0.412565    7.937472    9.056729    -11.465977    5.900136    7.294387    0.000000    0.000000    0.000000    0.285495    8.690325    -6.580027    0.970236    8.217646    -0.820158    5.784887    -3.301538    5.598309    0.000000    0.000000    0.000000    
-6.029696    83.357796    48.436348    -13.616503    1.000487    90.889732    -2.864720    -17.211782    2.166144    1.926171    -2.408413    2.640392    5.487857    22.724165    -3.362807    -2.887763    -2.147849    -3.622274    11.343962    6.065340    -11.990956    -92.054871    43.601189    11.953801    -3.271799    -8.229828    -8.239605    -6.245318    -8.538296    1.395141    -5.739739    2.906447    -6.423186    74.735840    54.506672    -1.654834    -4.336765    -19.107296    25.192369    -1.170827    -18.208296    2.066794    -4.785895    -39.857937    -11.532390    0.470580    9.277076    7.748755    -11.664437    7.395692    8.628055    0.000000    0.000000    0.000000    0.068421    8.629562    -7.024893    0.534404    9.429819    -1.062428    6.660283    -2.079628    7.010020    0.000000    0.000000    0.000000    
-4.616290    83.285805    48.348774    -13.578553    1.233725    90.531151    -3.111287    -17.414358    2.253158    1.842785    -2.202816    2.765328    5.505561    22.852070    -3.335172    -2.902626    -2.477320    -3.595981    11.413336    5.946107    -11.821367    -92.256996    43.465767    12.211270    -3.225108    -8.181409    -8.105311    -6.293659    -8.487190    1.464740    -5.919538    2.647377    -6.360497    75.565521    54.272064    -2.382382    -3.616035    -19.047766    25.126484    -2.267978    -18.314409    1.636944    -5.000113    -39.664841    -11.472492    0.357501    10.095299    7.599315    -11.523172    8.908167    9.260259    0.000000    0.000000    0.000000    -0.358797    8.492650    -7.628996    0.147985    10.913820    -0.994657    7.336223    -0.665243    8.304292    0.000000    0.000000    0.000000    
-3.207045    83.215820    48.278767    -13.485537    1.389909    90.342606    -3.483564    -17.498386    2.249331    1.974775    -2.120689    2.822293    5.488941    22.636280    -3.305893    -2.959528    -2.172904    -3.579911    11.409872    5.839477    -11.741018    -92.107613    42.892899    12.152631    -3.578579    -8.008678    -7.995144    -5.900927    -8.358126    1.996581    -6.223875    2.505787    -6.576372    76.403694    54.586597    -2.993036    -3.397514    -18.924580    24.765291    -2.341980    -18.251825    1.798661    -5.380468    -39.555332    -11.344560    0.525982    11.284642    6.198699    -11.219429    8.908917    9.372245    0.000000    0.000000    0.000000    -0.695470    8.406802    -7.956395    -0.161063    12.360913    -1.298281    7.910475    1.040490    9.554863    0.000000    0.000000    0.000000    
-1.787425    83.219505    48.184055    -13.413237    1.675760    90.263588    -3.754932    -17.601685    2.042872    1.642139    -1.896014    2.651732    5.553372    22.291220    -3.145001    -3.092173    -1.927538    -3.442332    11.573698    5.636362    -11.011175    -92.261971    42.811665    12.307464    -3.556644    -7.900817    -7.709764    -6.137714    -8.233665    1.799649    -6.022611    2.433282    -6.504574    76.451477    54.738499    -3.024168    -2.949950    -18.618223    24.358566    -2.590012    -18.055752    1.975952    -5.938342    -39.460670    -11.340042    0.604700    12.660105    5.365644    -10.944530    9.425428    8.806190    0.000000    0.000000    0.000000    -1.186908    8.070792    -8.431481    -0.523960    14.097398    -1.800219    8.214303    3.271558    11.118491    0.000000    0.000000    0.000000    
-0.449611    83.264664    48.042946    -13.417176    2.133537    90.224457    -4.590674    -17.717264    2.009563    2.029767    -1.751487    2.756598    5.375926    21.882427    -3.235065    -3.005270    -1.433795    -3.541455    11.416926    5.399090    -11.175609    -92.243454    42.463032    12.234674    -3.647549    -7.861642    -7.416512    -6.093556    -8.185033    1.693528    -6.526009    2.173214    -7.028493    77.300537    54.984680    -3.547137    -2.472759    -18.378609    23.705919    -2.186929    -17.925653    2.240432    -6.754004    -39.543724    -11.551039    0.656965    14.375314    4.478361    -11.520432    9.741985    9.376573    0.000000    0.000000    0.000000    -1.937727    7.478698    -8.748059    -0.725626    16.018309    -2.606064    8.271371    5.663245    12.536595    0.000000    0.000000    0.000000    
0.933250    83.349236    47.930984    -13.291060    2.489208    90.490257    -5.271195    -17.748207    1.724764    2.145640    -1.633878    2.579105    5.056139    21.620392    -3.294836    -2.738822    -0.778631    -3.577332    11.274951    5.418759    -11.293668    -92.159630    42.206524    12.093725    -3.584836    -8.027430    -7.183092    -5.740997    -8.338115    1.771869    -6.444338    2.404047    -7.380657    76.873878    55.263302    -2.992438    -1.815289    -18.211397    23.052353    -2.961004    -17.906769    1.941711    -7.595818    -39.350410    -12.077042    0.667582    15.835986    4.232919    -10.561375    9.858682    9.201035    0.000000    0.000000    0.000000    -2.580923    6.924848    -8.969007    -0.829852    18.108168    -3.832489    8.209388    8.652600    14.017696    0.000000    0.000000    0.000000    
